<?xml version="1.0" encoding="utf-8"?>
<!-- Generator: Adobe Illustrator 24.1.2, SVG Export Plug-In . SVG Version: 6.00 Build 0)  -->
<svg version="1.1" id="Layer_1" xmlns="http://www.w3.org/2000/svg" xmlns:xlink="http://www.w3.org/1999/xlink" x="0px" y="0px"
	 viewBox="0 0 322.3 323.3" style="enable-background:new 0 0 322.3 323.3;" xml:space="preserve">
<style type="text/css">
	.st0{fill:#ACACAC;}
</style>
<g id="Сгруппировать_21604" transform="translate(-296.709 -127.793)">
	<g id="Сгруппировать_21603">
		<path id="Контур_41602" class="st0" d="M410,170.9l-5.7-12.3l2.9-1.3l5.7,12.3c1.8,3.7,0.2,8.1-3.4,9.8
			c-0.1,0.1-0.2,0.1-0.4,0.2c-3.8,1.7-8.2,0.6-10.1-3.6l-5.7-12.3l2.9-1.4l5.7,12.3c1.1,2.2,3.7,3.2,5.9,2.1
			C410,175.7,411,173.1,410,170.9L410,170.9z"/>
		<path id="Контур_41603" class="st0" d="M434.9,170.5l-2.9,0.8l-12.4-11.9l3.9,14.3l-3.1,0.8l-5.4-19.9l3-0.8l12.3,11.8
			l-3.9-14.2l3.1-0.8L434.9,170.5z"/>
		<path id="Контур_41604" class="st0" d="M436.9,149.4l3.1-0.5l3,20.5l-3.1,0.5L436.9,149.4z"/>
		<path id="Контур_41605" class="st0" d="M465.2,170.2l-2.4,1.5l-2.3-3.6c-1,0.4-2.1,0.5-3.1,0.5c-5.9,0.1-10.7-4.5-10.8-10.4
			c-0.1-5.9,4.5-10.7,10.3-10.9c5.9-0.1,10.7,4.5,10.8,10.4c0,0,0,0.1,0,0.1c0.1,3.6-1.7,7-4.6,9L465.2,170.2z M461.3,164.2
			c2.1-1.4,3.3-3.8,3.2-6.3c0.1-4-3.1-7.4-7.2-7.5c-4-0.1-7.4,3.1-7.4,7.2c0,0.2,0,0.3,0,0.5c0.1,4.1,3.4,7.4,7.5,7.3
			c0.4,0,0.9-0.1,1.3-0.1l-2-3.2l2.3-1.5L461.3,164.2z"/>
		<path id="Контур_41606" class="st0" d="M484.3,163.5l2.2-13.3l3.2,0.5l-2.2,13.3c-0.6,4-4.3,6.8-8.3,6.2
			c-0.1,0-0.3,0-0.4-0.1c-4.1-0.7-7.1-4.1-6.4-8.6l2.2-13.3l3.2,0.5l-2.2,13.3c-0.4,2.4,1.3,4.7,3.7,5.1
			C481.7,167.5,483.9,165.9,484.3,163.5L484.3,163.5z"/>
		<path id="Контур_41607" class="st0" d="M497.4,152.7l11.8,3.8l-0.9,2.8l-8.8-2.9l-1.9,5.8l7.7,2.5l-0.9,2.8l-7.7-2.5
			l-1.8,5.5l9.1,3l-0.9,2.8l-12.1-3.9L497.4,152.7z"/>
		<path id="Контур_41608" class="st0" d="M520.4,184.6l11.6-17.1l6.6,4.5c4.9,3.3,5.1,9,1.8,13.8c-3.3,4.9-8.6,6.6-13.5,3.3
			L520.4,184.6z M524.6,184l4,2.7c3.3,2.3,6.9,0.8,9.2-2.6c2.3-3.4,2.5-7.3-0.9-9.6l-4-2.7L524.6,184z"/>
		<path id="Контур_41609" class="st0" d="M551.7,181.9l9.1,8.5l-2,2.1l-6.7-6.4l-4.2,4.5l5.9,5.6l-2,2.1l-5.9-5.6l-4,4.2
			l7,6.6l-2,2.1l-9.3-8.7L551.7,181.9z"/>
		<path id="Контур_41610" class="st0" d="M555.1,206.2c-1.4,1.5-1.5,3.8-0.1,5.3c1.5,1.9,3.3,2.1,4.6,1.3
			c1.6-1.1,1.4-2.9,0.6-4.7l-1.1-2.4c-1.9-4.2-0.3-6.3,1.1-7.5c2.8-2.2,6.6-1.2,8.9,1.6c2.4,3,2.4,6.7-0.5,9.1l-2-2.5
			c1.5-1.2,1.5-3.1,0.2-4.8c-1.2-1.5-3.2-2-4.5-1c-0.6,0.5-1.4,1.5-0.4,3.8l1.1,2.5c1.8,4,1.1,6.7-1.5,8.4c-2.7,1.8-6.3,1.1-8.7-2
			c-2.7-3.3-2.3-7.5,0.3-9.6L555.1,206.2z"/>
		<path id="Контур_41611" class="st0" d="M576.8,210.8l1.7,2.7l-17.3,11.2l-1.7-2.7L576.8,210.8z"/>
		<path id="Контур_41612" class="st0" d="M584.6,234.7c0.6-1.7,0.4-3.6-0.3-5.2c-2-3.7-6.6-5.1-10.3-3.1
			c-3.5,1.9-5,6.1-3.4,9.7c1.5,3,4.4,4.6,7.3,3.4l-2.5-5.2l2.5-1.2l4.1,8.5c-6.6,3.2-11.4,1.1-14-4.2c-2.5-5.3-0.2-11.6,5.1-14.1
			c5.2-2.4,11.4-0.3,14,4.9c1.2,2.4,1.4,5.2,0.5,7.8L584.6,234.7z"/>
		<path id="Контур_41613" class="st0" d="M577.2,263.6l-0.8-2.9l11.9-12.5l-14.2,4l-0.9-3.1l19.9-5.5l0.8,2.9l-11.8,12.4
			l14.1-3.9l0.9,3.1L577.2,263.6z"/>
		<path id="Контур_41614" class="st0" d="M584.3,269.8c-2,0.5-3.3,2.5-2.9,4.5c0.3,2.4,1.7,3.5,3.3,3.5c1.9-0.1,2.7-1.7,3-3.6
			l0.3-2.7c0.7-4.6,3.1-5.5,4.9-5.7c3.5-0.4,6.2,2.5,6.7,6.1c0.5,3.8-1.5,7-5.3,7.4l-0.4-3.2c1.9-0.2,2.9-1.8,2.7-3.9
			c-0.2-1.9-1.6-3.4-3.2-3.2c-0.8,0.1-2,0.5-2.4,3.1l-0.4,2.7c-0.6,4.3-2.7,6.3-5.7,6.3c-3.3,0.1-5.9-2.4-6.3-6.4
			c-0.5-4.3,2.1-7.6,5.4-8L584.3,269.8z"/>
		<path id="Контур_41615" class="st0" d="M580.8,320.3l1.8-8.1l-4.6-3.1l0.7-3.3l18.5,12.1l-0.8,3.4l-21.9,3.1l0.7-3.3
			L580.8,320.3z M585.2,313.8l-1.3,6l9.1-1.1L585.2,313.8z"/>
		<path id="Контур_41616" class="st0" d="M568.2,340.6l1.1-2.8l17-2.7l-13.7-5.5l1.2-3l19.2,7.7l-1.1,2.8l-16.9,2.7l13.6,5.5
			l-1.2,3L568.2,340.6z"/>
		<path id="Контур_41617" class="st0" d="M566,345l17.6,10.9l-4.2,6.8c-3.1,5-8.7,5.5-13.7,2.5s-6.9-8.3-3.9-13.3L566,345z
			 M566.8,349.3l-2.6,4.1c-2.1,3.4-0.5,6.9,3,9.1c3.5,2.1,7.4,2.1,9.5-1.3l2.6-4.1L566.8,349.3z"/>
		<path id="Контур_41618" class="st0" d="M558.4,389.1l-2.3,2.2l-14.3-14.9l2.3-2.2L558.4,389.1z"/>
		<path id="Контур_41619" class="st0" d="M538.1,380.1l12.4,16.5l-6.4,4.8c-4.7,3.5-10.1,2-13.7-2.7
			c-3.5-4.7-3.5-10.3,1.2-13.8L538.1,380.1z M537.3,384.3l-3.9,2.9c-3.2,2.4-2.9,6.3-0.5,9.6c2.5,3.3,6.1,4.7,9.3,2.2l3.9-2.9
			L537.3,384.3z"/>
		<path id="Контур_41620" class="st0" d="M530.6,410.6l-11,5.9l-1.4-2.6l8.2-4.4l-2.9-5.4l-7.1,3.8l-1.4-2.6l7.1-3.8l-2.7-5.1
			l-8.4,4.5l-1.4-2.6l11.3-6L530.6,410.6z"/>
		<path id="Контур_41621" class="st0" d="M497.2,408.5l7.9-2.8l0.1-5.5l3.2-1.1l-0.5,22.1l-3.3,1.2l-14.2-16.9l3.2-1.1
			L497.2,408.5z M505,408.8l-5.8,2.1l5.8,7.1L505,408.8z"/>
		<path id="Контур_41622" class="st0" d="M487.4,412c-0.6-2-2.7-3.1-4.7-2.5c-2.4,0.5-3.4,2-3.3,3.5c0.2,1.9,1.9,2.6,3.8,2.7
			l2.7,0.2c4.6,0.3,5.7,2.7,6.1,4.5c0.7,3.5-2,6.4-5.6,7.1c-3.8,0.7-7-1-7.8-4.7l3.1-0.6c0.4,1.9,2,2.8,4.1,2.4
			c1.9-0.4,3.3-1.8,3-3.5c-0.2-0.8-0.7-2-3.2-2.1l-2.7-0.2c-4.3-0.3-6.4-2.2-6.7-5.2c-0.3-3.2,2-6,5.9-6.8c4.2-0.8,7.7,1.5,8.4,4.8
			L487.4,412z"/>
		<path id="Контур_41623" class="st0" d="M454.8,429.8l-12.2-0.8l0.2-2.9l9.1,0.6l0.4-6.1l-7.2-0.5l0.2-2.9l7.2,0.5l0.6-8.7
			l3.2,0.2L454.8,429.8z"/>
		<path id="Контур_41624" class="st0" d="M427.4,426.4c-5.7-1.2-9.4-6.9-8.1-12.6c1.2-5.7,6.9-9.4,12.6-8.1
			c5.7,1.2,9.4,6.9,8.1,12.6c0,0,0,0.1,0,0.1C438.8,424.1,433.2,427.6,427.4,426.4C427.5,426.4,427.5,426.4,427.4,426.4z
			 M431.5,408.8c-4-1.1-8.1,1.3-9.1,5.3s1.3,8.1,5.3,9.2c4,1.1,8.1-1.3,9.1-5.3c0-0.1,0-0.2,0.1-0.2c1-3.9-1.4-7.9-5.3-8.9
			C431.6,408.8,431.6,408.8,431.5,408.8L431.5,408.8z"/>
		<path id="Контур_41625" class="st0" d="M405.3,396.6l3.6,1.5l1.8,9l2,0.9l3-7l3,1.3l-8.1,19l-7.4-3.1
			c-4.1-1.7-4.5-5.5-3.2-8.5c1.2-2.8,3.7-4.9,7.4-3.8L405.3,396.6z M408.7,417.3l2.8-6.7l-4.3-1.8c-2.1-0.9-3.7,0.4-4.4,2.1
			c-0.7,1.6-0.6,3.7,1.5,4.6L408.7,417.3z"/>
		<path id="Контур_41626" class="st0" d="M376.1,402.7l-9.7-7.8l1.8-2.3l7.2,5.8l3.8-4.8l-6.3-5l1.8-2.3l6.3,5l3.6-4.5l-7.5-6
			l1.8-2.3l10,7.9L376.1,402.7z"/>
		<path id="Контур_41627" class="st0" d="M360.2,389.1l8.1-13.8l-14.2,7.4l-2.3-2.4l19.3-9.7l2,2.2l-10.7,18.8L360.2,389.1z"
			/>
		<path id="Контур_41628" class="st0" d="M348.2,375.6l-7.3-10.1l2.4-1.7l5.4,7.5l5-3.6l-4.7-6.6l2.4-1.7l4.7,6.6l4.7-3.4
			l-5.6-7.8l2.4-1.7l7.4,10.4L348.2,375.6z"/>
		<path id="Контур_41629" class="st0" d="M348.8,337l1.8,3.4l-4.4,8.1l1,2l6.7-3.5l1.5,2.9l-18.3,9.5l-3.7-7.2
			c-2-3.9,0-7.1,2.9-8.6c2.7-1.4,6-1.4,8.1,1.8L348.8,337z M338.3,355.1l6.4-3.3l-2.1-4.1c-1.1-2.1-3.1-2-4.7-1.2
			c-1.5,0.8-2.8,2.5-1.8,4.4L338.3,355.1z"/>
		<path id="Контур_41630" class="st0" d="M345.9,329l-9,3.1l-8.1,11l-1.2-3.6l5.9-8l-9.6-2.8l-1.2-3.6L336,329l8.9-3
			L345.9,329z"/>
		<path id="Контур_41631" class="st0" d="M319,303.4l-0.5-8.3c-0.3-4.4,2.9-6.5,6.2-6.7c3.3-0.2,6.6,1.5,6.9,5.9l0.3,5.1
			l7.6-0.4l0.2,3.2L319,303.4z M321.7,300l7.2-0.4l-0.3-4.9c-0.1-2.3-2-3.2-3.8-3.1c-1.7,0.1-3.6,1.1-3.4,3.4L321.7,300z"/>
		<path id="Контур_41632" class="st0" d="M340.2,269.9l-0.3,3.9l-8,4.5l-0.2,2.2l7.6,0.7l-0.3,3.2l-20.6-1.9l0.7-8
			c0.4-4.4,3.9-6,7.1-5.7c3,0.3,5.8,2.1,5.9,5.9L340.2,269.9z M321.6,279.6l7.2,0.6l0.4-4.6c0.2-2.3-1.5-3.4-3.3-3.6
			c-1.7-0.2-3.7,0.6-3.9,2.8L321.6,279.6z"/>
		<path id="Контур_41633" class="st0" d="M323,252c1.4-5.7,7.2-9.1,12.9-7.7c5.7,1.4,9.1,7.2,7.7,12.9
			c-1.4,5.7-7.2,9.1-12.9,7.7c-0.1,0-0.1,0-0.2,0C324.9,263.4,321.5,257.7,323,252C323,252,323,252,323,252z M340.4,256.7
			c1.2-4-1-8.1-5-9.3c-4-1.2-8.1,1-9.3,5c-1.2,4,1,8.1,5,9.3c0.1,0,0.2,0,0.2,0.1c3.9,1.1,7.9-1.1,9.1-5
			C340.4,256.8,340.4,256.7,340.4,256.7z"/>
		<path id="Контур_41634" class="st0" d="M349.3,250.4c0.4-0.6,0.8-1.2,1.1-1.9c0.9-2.2-0.3-3.7-2.2-4.5l-19.6-8.2l1.2-3
			l19.6,8.2c3.4,1.4,5.6,4.2,3.8,8.6c-0.3,0.7-0.8,1.4-1.3,2.1L349.3,250.4z"/>
		<path id="Контур_41635" class="st0" d="M332.8,226.1l6-10.9l2.6,1.4l-4.5,8.1l5.4,2.9l3.9-7.1l2.6,1.4l-3.9,7.1l5.1,2.8
			l4.6-8.4l2.6,1.4l-6.1,11.2L332.8,226.1z"/>
		<path id="Контур_41636" class="st0" d="M366.5,206.2c0.8,3,0.1,6.3-1.8,8.7c-3.6,4.6-10.3,5.4-14.9,1.8
			c-4.5-3.5-5.4-10-2-14.6c1.8-2.5,4.7-4,7.8-4.1l0,3.1c-4.1,0.4-7,4.1-6.5,8.2s4.1,7,8.2,6.6c2-0.2,3.8-1.2,5-2.8
			c1.3-1.7,1.8-4,1.2-6.1L366.5,206.2z"/>
		<path id="Контур_41637" class="st0" d="M355.8,192.7l11.1-10.7l2.1,2.1l-4.4,4.2l12.3,12.7l-2.3,2.3l-12.3-12.7l-4.4,4.2
			L355.8,192.7z"/>
		<path id="Контур_41638" class="st0" d="M381.3,192.2c0.9-0.7,2.2-0.7,2.9,0.2c0,0,0,0,0,0c0.7,0.9,0.5,2.2-0.3,2.9
			c0,0,0,0-0.1,0c-0.8,0.7-2.1,0.7-2.8-0.2c0,0,0,0-0.1-0.1C380.3,194.2,380.4,192.9,381.3,192.2
			C381.3,192.2,381.3,192.2,381.3,192.2z"/>
	</g>
</g>
</svg>
